<?xml version="1.0" encoding="UTF-8" standalone="no"?>
<svg
   xmlns:dc="http://purl.org/dc/elements/1.1/"
   xmlns:cc="http://creativecommons.org/ns#"
   xmlns:rdf="http://www.w3.org/1999/02/22-rdf-syntax-ns#"
   xmlns:svg="http://www.w3.org/2000/svg"
   xmlns="http://www.w3.org/2000/svg"
   xmlns:sodipodi="http://sodipodi.sourceforge.net/DTD/sodipodi-0.dtd"
   xmlns:inkscape="http://www.inkscape.org/namespaces/inkscape"
   version="1.1"
   x="0px"
   y="0px"
   viewBox="0 0 144.083 180"
   enable-background="new 0 0 144.083 144"
   xml:space="preserve"
   id="svg2"
   inkscape:version="0.91 r13725"
   sodipodi:docname="noun_748630_cc.svg"><metadata
     id="metadata16"><rdf:RDF><cc:Work
         rdf:about=""><dc:format>image/svg+xml</dc:format><dc:type
           rdf:resource="http://purl.org/dc/dcmitype/StillImage" /></cc:Work></rdf:RDF></metadata><defs
     id="defs14" /><sodipodi:namedview
     pagecolor="#ffffff"
     bordercolor="#666666"
     borderopacity="1"
     objecttolerance="10"
     gridtolerance="10"
     guidetolerance="10"
     inkscape:pageopacity="0"
     inkscape:pageshadow="2"
     inkscape:window-width="667"
     inkscape:window-height="480"
     id="namedview12"
     showgrid="false"
     inkscape:zoom="1.3111111"
     inkscape:cx="72.041496"
     inkscape:cy="90"
     inkscape:window-x="0"
     inkscape:window-y="0"
     inkscape:window-maximized="0"
     inkscape:current-layer="svg2" /><path
     d="M65.844,100.787c-5.078-3.249-9.885-6.326-10.26-12.99c3.919-2.405,7.031-6.179,8.89-10.777  c3.101-0.2,5.946-2.987,6.785-6.88c0.937-4.335-0.996-8.478-4.342-9.491c4.509-9.018-0.865-20.697-1.116-21.232  c-0.18-0.384-0.515-0.674-0.92-0.797c-0.405-0.125-0.845-0.07-1.208,0.147c-0.042,0.025-4.379,2.443-13.847,1.746  c-9.075-0.672-15.763,1.314-19.882,5.899c-4.279,4.765-4.533,10.971-4.345,14.04c-0.178,0.021-0.354,0.049-0.53,0.087  c-3.603,0.777-5.74,5.085-4.766,9.602c0.843,3.895,3.689,6.682,6.79,6.88c1.889,4.668,5.058,8.474,9.056,10.874  c-0.378,6.558-5.102,9.643-10.091,12.901c-5.013,3.274-10.197,6.66-10.197,13.663v13.745c0,0.828,0.671,1.5,1.5,1.5H74.68  c0.828,0,1.5-0.672,1.5-1.5v-13.745C76.18,107.401,70.926,104.039,65.844,100.787z M73.18,126.704H18.859v-12.245  c0-5.379,4.095-8.054,8.837-11.151c5.379-3.513,11.475-7.495,11.475-16.271c0-0.552-0.303-1.06-0.79-1.321  c-4.026-2.165-7.171-5.979-8.858-10.739c-0.244-0.687-0.949-1.097-1.663-0.979c-1.95,0.328-4.02-1.687-4.626-4.49  c-0.615-2.851,0.514-5.614,2.463-6.035c0.382-0.081,0.787-0.067,1.206,0.04c0.495,0.129,1.022-0.005,1.397-0.354  c0.375-0.349,0.545-0.864,0.454-1.367c-0.015-0.08-1.397-8.01,3.42-13.373c3.466-3.858,9.33-5.518,17.429-4.912  c7.269,0.539,11.833-0.635,14.036-1.455c1.312,3.48,4.151,12.873-0.551,19.105c-0.384,0.509-0.404,1.205-0.051,1.735  s1.004,0.779,1.621,0.621c0.419-0.107,0.825-0.121,1.201-0.041c1.953,0.422,3.082,3.186,2.467,6.036  c-0.604,2.801-2.678,4.813-4.624,4.49c-0.721-0.121-1.418,0.292-1.662,0.979c-1.661,4.693-4.753,8.479-8.705,10.659  c-0.479,0.264-0.775,0.768-0.775,1.313c0,8.898,6.198,12.865,11.667,16.365c4.804,3.074,8.953,5.729,8.953,11.145V126.704z"
     id="path4" /><path
     d="M104.766,15.296c-13.49,0-24.465,9.641-24.465,21.491c0,4.807,1.848,9.494,5.211,13.263  c-0.051,1.526-0.547,3.527-2.383,5.267l-1.793,1.698l2.334,0.808c0.932,0.323,1.854,0.457,2.746,0.457  c2.957,0,5.574-1.472,6.994-2.457c3.494,1.607,7.398,2.454,11.355,2.454c13.488,0,24.463-9.64,24.463-21.489  C129.229,24.937,118.254,15.296,104.766,15.296z M104.766,55.276c-3.809,0-7.559-0.878-10.842-2.538l-0.859-0.434l-0.752,0.6  c-0.529,0.421-2.77,2.093-5.289,2.34c1.273-2.094,1.539-4.226,1.488-5.825l-0.018-0.568l-0.391-0.414  c-3.098-3.282-4.803-7.42-4.803-11.649c0-10.196,9.629-18.491,21.465-18.491c11.834,0,21.463,8.295,21.463,18.491  C126.229,46.982,116.6,55.276,104.766,55.276z"
     id="path6" /></svg>
