<?xml version="1.0" encoding="UTF-8" standalone="no"?>
<svg
   xmlns:dc="http://purl.org/dc/elements/1.1/"
   xmlns:cc="http://creativecommons.org/ns#"
   xmlns:rdf="http://www.w3.org/1999/02/22-rdf-syntax-ns#"
   xmlns:svg="http://www.w3.org/2000/svg"
   xmlns="http://www.w3.org/2000/svg"
   xmlns:sodipodi="http://sodipodi.sourceforge.net/DTD/sodipodi-0.dtd"
   xmlns:inkscape="http://www.inkscape.org/namespaces/inkscape"
   version="1.1"
   x="0px"
   y="0px"
   viewBox="0 0 144.083 180"
   enable-background="new 0 0 144.083 144"
   xml:space="preserve"
   id="svg2"
   inkscape:version="0.91 r13725"
   sodipodi:docname="noun_710787_cc.svg"><metadata
     id="metadata22"><rdf:RDF><cc:Work
         rdf:about=""><dc:format>image/svg+xml</dc:format><dc:type
           rdf:resource="http://purl.org/dc/dcmitype/StillImage" /></cc:Work></rdf:RDF></metadata><defs
     id="defs20" /><sodipodi:namedview
     pagecolor="#ffffff"
     bordercolor="#666666"
     borderopacity="1"
     objecttolerance="10"
     gridtolerance="10"
     guidetolerance="10"
     inkscape:pageopacity="0"
     inkscape:pageshadow="2"
     inkscape:window-width="667"
     inkscape:window-height="480"
     id="namedview18"
     showgrid="false"
     inkscape:zoom="1.3111111"
     inkscape:cx="72.041496"
     inkscape:cy="90"
     inkscape:window-x="0"
     inkscape:window-y="0"
     inkscape:window-maximized="0"
     inkscape:current-layer="svg2" /><path
     d="M68.329,97.046c-4.379-2.941-8.265-5.552-9.483-9.791h14.668c1.339,0,2.497-0.898,2.866-2.185  c0.368-1.287-0.179-2.674-1.314-3.383c-0.207-0.129-5.072-3.265-5.072-11.923c-0.007-1.604-0.085-3.208-0.232-4.773  c0.021-0.429,0.036-0.859,0.036-1.294c0-14.001-10.1-25.596-22.538-25.905c-0.088-0.007-0.192-0.009-0.294-0.007  c-0.073-0.003-0.146-0.005-0.219-0.005c-12.711,0-23.052,11.626-23.052,25.917c0,1.433,0.117,2.917,0.348,4.419  c-0.021,0.542-0.04,1.086-0.042,1.662c0,8.644-4.866,11.78-5.04,11.889c-1.168,0.686-1.732,2.068-1.377,3.374  c0.355,1.307,1.541,2.214,2.895,2.214h14.373c-1.175,4.271-5.028,6.9-9.373,9.866c-5.448,3.717-11.622,7.93-11.622,16.155v14.454  c0,1.657,1.343,3,3,3h60.278c1.657,0,3-1.343,3-3v-14.454C80.134,104.976,73.863,100.763,68.329,97.046z M46.807,40.781l0.024,1.623  l-0.1,0.969L46.807,40.781z M74.134,124.73H19.856v-11.454c0-4.812,3.421-7.391,9.004-11.199  c5.792-3.953,12.357-8.433,12.357-17.639c0-1.104-0.612-2.125-1.585-2.647c-0.095-0.059-0.19-0.116-0.287-0.169  c-0.441-0.241-0.936-0.367-1.438-0.367H27.14C28.696,78.574,30,74.826,30,69.792c0.003-0.591,0.026-1.155,0.049-1.732  c0.008-0.203-0.004-0.406-0.037-0.606c-0.211-1.287-0.318-2.551-0.318-3.757c0-10.982,7.649-19.917,17.024-19.917l0-0.012  c0.055,0.005,0.115,0.011,0.131,0.012v0.005c0.029,0,0.059,0.002,0.093,0c0.03,0.001,0.06,0.003,0.09,0.003  c9.244,0.18,16.764,9.111,16.764,19.909c0,0.406-0.018,0.807-0.039,1.207c-0.008,0.15-0.004,0.3,0.01,0.449  c0.143,1.45,0.218,2.944,0.225,4.426c0,5.041,1.305,8.794,2.861,11.477H55.603c-0.503,0-0.999,0.127-1.44,0.368  c-0.083,0.046-0.164,0.095-0.188,0.112c-0.941,0.533-1.522,1.53-1.522,2.611c0,9.263,6.658,13.734,12.532,17.681  c5.673,3.811,9.151,6.393,9.151,11.249V124.73z"
     id="path4" /><path
     d="M104.263,13.27c-14.317,0-25.965,10.314-25.965,22.991c0,4.972,1.827,9.818,5.172,13.777  c-0.166,1.41-0.794,2.639-1.876,3.663l-3.586,3.397l4.668,1.616c1.027,0.355,2.114,0.536,3.23,0.536  c2.906,0,5.463-1.199,7.146-2.251c3.488,1.477,7.327,2.251,11.211,2.251c14.316,0,25.963-10.313,25.963-22.989  C130.226,23.583,118.58,13.27,104.263,13.27z M104.263,53.25c-3.575,0-7.09-0.822-10.166-2.376l-1.719-0.869l-1.506,1.201  c-0.47,0.375-1.07,0.774-1.734,1.12c0.323-1.273,0.402-2.471,0.369-3.482l-0.036-1.136l-0.779-0.826  c-2.874-3.048-4.394-6.72-4.394-10.621c0-9.369,8.956-16.991,19.965-16.991c11.008,0,19.963,7.622,19.963,16.991  C124.226,45.628,115.271,53.25,104.263,53.25z"
     id="path6" /></svg>